<svg id="Layer_1" data-name="Layer 1" xmlns="http://www.w3.org/2000/svg" viewBox="0 0 1000 1000"><path d="M315.29,602.71s-3.38,1.84-4.52,2.53Q292,616.61,273.18,628c-9.24,5.65-17.57,12.35-24.15,21.09a47.36,47.36,0,0,0-6.82,12.73,107.63,107.63,0,0,0-5.5,45.76c2.07,20.23,9.72,42.27,24.71,56.26,10.44,9.75,21.51,16.77,35.63,19.14,12.1,2,23.86.25,34.52-6.45a52.75,52.75,0,0,0,7.85-6.61,21.87,21.87,0,0,0,4.7-22.1C341.29,739,334,732,328.61,731.92c-1.34,0-2.69-.1-4,0-2.23.15-3.49-.95-4.26-2.93s-.64-2.63.88-3.87a18.13,18.13,0,0,1,2-1.34q24-14.43,48-28.88a9.62,9.62,0,0,1,7.28-1.36c5.2,1,9.86,2.26,15.4,7.46s9.38,18.92,7.27,30.18c-1.92,10.21-8,28.38-31.2,42.22-15.7,9.36-29.87,18.14-45.74,27.21C310.44,808.49,297,814.51,281.14,817c-27.28,4.35-51.84-1.8-72.86-20.07-10.33-9-17.59-20.25-22.38-33.06-3.18-8.49-6.24-20.27-6.87-29.34-1.61-22.92,4.27-43.92,15.87-63.5a116.42,116.42,0,0,1,40.27-40.46q26.87-16.36,54-32.32c7.19-4.2,14.46-8.29,21.72-12.36,3.31-1.86,4.5-2.63,4.5-2.63s0-7.62,0-8.83V432.1s-3.82.83-5.48,1.15a143.45,143.45,0,0,1-28.85,2.6c-24.7-.39-48.23-5.8-70.1-17.55-13.52-7.26-25.49-16.54-35-28.69a78.32,78.32,0,0,1-16.08-37.36,101.91,101.91,0,0,1-1.51-18.86c.45-11.79,2.55-23.25,7.47-34,2.81-6.15,7-11.42,11.26-16.66,6-7.45,13.61-13,21.69-17.84,21.3-12.82,42.71-25.47,64.05-38.23C280.55,216,298.32,205.39,316,194.56c4-2.45,7.64-2.75,11.79-.93A54,54,0,0,1,339,200.71,114.47,114.47,0,0,1,357.11,219a146.63,146.63,0,0,1,12.72,18.15,16.67,16.67,0,0,1,2.45,8.8q0,9.69.09,19.37c0,1.16-.33,2.41.42,3.5,1.11.41,1.77-.45,2.53-.9,19.21-11.62,38.45-23.18,57.56-35a11,11,0,0,1,11.06-.73,56.33,56.33,0,0,1,15,10.1,145.71,145.71,0,0,1,26,31.17c.84,1.34,1.45,2.9,2.86,3.75,1.27.25,2.11-.51,3-1.06,17.86-11,92.09-56.55,111.45-68.17a10.25,10.25,0,0,1,9.61-.67,41.3,41.3,0,0,1,9.11,5.13A112.38,112.38,0,0,1,642,232.93c4,4.89,7.59,10.09,11.1,15.35A22.8,22.8,0,0,1,657,261.21c0,12.64.06,64.92.06,82a31.42,31.42,0,0,0,0,3.22c.29,2.9-.93,4.74-3.47,6.19-6.06,3.47-39.3,24.84-50.46,31.07-2.11,1.18-4.15,2.47-6.25,3.68a3,3,0,0,1-2.95.4,14.81,14.81,0,0,1-2.43-7,6.94,6.94,0,0,1,2.24-2.65,11.18,11.18,0,0,0,3-4.72c1.39-4.49,2.74-9,2.73-13.78,0-24.34,0-41.52,0-65.86a20.24,20.24,0,0,0-3.34-11.42c-7.78-11.86-16.53-22.86-27.59-31.88-.42-.34-.84-.67-1.24-1-1.77-1.57-3.5-1.51-5.5-.26-5.35,3.35-52.26,31.75-70.29,42.72-.81.49-1.6,1-2.4,1.49a3.39,3.39,0,0,0-1.7,3c0,8.45,0,18.16,0,26.4,0,0,2.36-1.3,3.2-1.8,14.05-8.47,61.84-37.49,71.72-43.5,1.84-1.12,3.67-2.26,5.93-2.3,2.77,0,3.94,1,4,3.79.09,3.77,0,7.53,0,11.3q0,68.58,0,137.16a10.51,10.51,0,0,0,.33,4.16c1.55,0,2.68-1.07,3.89-1.8q22.77-13.77,45.5-27.6c19.19-11.66,38.33-23.39,57.58-34.93a6.93,6.93,0,0,0,3.82-6.78c-.09-41.55.05-83.1-.13-124.66-.07-15.72-3.54-30.93-8.58-45.78a167.72,167.72,0,0,0-27.38-50,94.1,94.1,0,0,0-32.73-26.93,57.37,57.37,0,0,0-24.45-6.13,50.51,50.51,0,0,0-30.24,9.54c-5.75,4-10.61,8.71-13.24,15.33-5.32,13.36-3.54,27.42,7.69,37.23a31.33,31.33,0,0,0,19,7.78,37.73,37.73,0,0,0,19.21-3.49,4.78,4.78,0,0,1,3.29-.8,11.52,11.52,0,0,1,3.2,4.9c-.22,1.37-1.1,1.78-1.9,2.26q-18.32,11-36.63,22c-4.83,2.92-9.54,6.06-14.83,8.14-12,4.71-24.19,6.08-36.57,1.36a34.82,34.82,0,0,1-21.95-23.59c-3.29-10.93-2-21.67,2.71-31.85,4.94-10.74,11.8-20.16,21.25-27.5a110.45,110.45,0,0,1,10.81-7q34.17-20.64,68.42-41.14c13.47-8.06,28-12.26,43.8-11.53a85,85,0,0,1,37.94,11.14c19.37,10.85,34.09,26.46,45.48,45.31,12.13,20.07,21.88,49.28,22.55,65.07s.77,37.79.75,45.44c-.07,33.21-.1,103.94-.15,106.09a8.35,8.35,0,0,1-4.57,7.53c-5.47,3.14-79,47.72-110.41,66.76-.65.4-3,1.92-3,1.92l2.23-.21c25.39-2.77,49.84,1.24,73.38,11,5.82,2.41,20,9.39,25.58,15a169.07,169.07,0,0,1,18.94,23A408.34,408.34,0,0,1,769.41,510q10.59,19.74,19.68,40.2c2.29,5.14,5.22,10,7.2,15.3a98,98,0,0,1,5.9,29.93c1,21.69-3.93,42.16-12.74,61.82a188.75,188.75,0,0,1-28,44.13A220.55,220.55,0,0,1,713.35,744c-1.43.93-4.46,3.17-4.46,3.17,1.06,1.42,2.24,3,3.29,4.35a371.89,371.89,0,0,1,26.14,38.28c1.3,2.2,2.52,4.45,3.67,6.73,1.66,3.3,1.49,4-1.5,6-2.69,1.78-5.46,3.44-8.19,5.16-15.22,9.62-165,103.63-184.65,115.36-.58.34-1.18.65-1.76,1-3,1.72-5.53,1.69-8.45-.66C524,912.45,484,881.05,477.67,876.06a6.09,6.09,0,0,0-2.77-1.68c-1.51,0-2.71,1-4,1.71-11.52,6.93-23,14-34.53,20.81s-23.46,13.66-35.2,20.48c-1.14.66-2.23,1.55-4,1.17-2.06-2.13-3.19-5-4.19-7.6a3.09,3.09,0,0,1,1.22-2.32c9.06-7.67,14.76-17.71,19.64-28.26A175.29,175.29,0,0,0,427,840.22a139,139,0,0,0,2.35-20.38c1-23.66.4-47.32.44-71q.19-105.09,0-210.18a14.55,14.55,0,0,0-.26-4.71c-1-.52-1.62.14-2.28.54-17.13,10.38-34.23,20.8-51.4,31.11-2.26,1.36-3.06,1.88-3.06,1.88.07,21.25,0,46.2.05,67.44a14.89,14.89,0,0,0,.62,4.78c1.17,3.54,3.2,5,6.91,4.85a4.32,4.32,0,0,1,2.71.23,9.63,9.63,0,0,1,2.18,5.46c-.78,1.7-2.37,2.3-3.71,3.12-6.09,3.7-46.35,27.47-60.3,35.83-3.63,2.18-6.05,2.3-6-3.36.11-25.82.05-51.64,0-77.45C315.33,606.83,315.29,602.71,315.29,602.71ZM572.58,528s2.69-1.54,3.7-2.15q11-6.68,22.06-13.38c6-3.63,12-7.22,17.92-10.89a11.5,11.5,0,0,1,10.39-1.2,38.58,38.58,0,0,1,8.7,4.14c7.38,4.9,13.31,11.31,18.74,18.16a230.23,230.23,0,0,1,29.09,46.82c3.37,7.33,6.48,14.79,7.87,22.8,1,5.69-.66,10.3-5.86,13.4-6.12,3.64-12.13,7.46-18.22,11.15q-28.12,17-56.27,33.95c-1.1.66-2.43,1.13-3.05,2.36.15.26.19.42.29.48l7.14,4.52c17,10.8,32.2,23.78,46.79,37.53a445.65,445.65,0,0,1,34.09,36c.51.61,1.56,1.76,1.56,1.76s1.16-.67,1.47-.91a89.75,89.75,0,0,0,18.48-19,160.84,160.84,0,0,0,13.79-24.13c9.68-20.68,14.83-42.3,13.25-65.26a66.14,66.14,0,0,0-4.2-20,550.94,550.94,0,0,0-33.49-70.18c-8.59-15.07-17.66-29.84-28.55-43.41-5.07-6.3-10.31-12.4-17.29-16.74a115.51,115.51,0,0,0-15.68-8.26A148.49,148.49,0,0,0,578,453.9c-1.86.11-3.75.18-5.25,1.31C572.11,458.81,572.58,528,572.58,528ZM488,577.18c1.49.37,2.29-.49,3.2-1,6-3.31,23.52-13.27,23.52-13.27,0-76,0-157.86,0-233.83,0-1.07,0-2.15,0-3.23,0-.77.14-1.64-.75-2.18-1.32-.22-2.21.74-3.21,1.34-6,3.6-17.92,10.88-17.92,10.88l-5.4,3.34c0,33.07-.05,72.27.07,105.35,0,3.94-1.17,6.42-4.69,8.45-9.55,5.48-46,27.73-54.92,33-1.23.73-2.38,1.84-4.19,1.33-1.11-1-1.23-2.54-1.8-3.87-1.08-2.56-.54-4.54,1.49-6.49a19.14,19.14,0,0,0,5.89-14.14c.11-28.37.09-56.74.1-85.11,0-.88.05-3.14.05-3.14s-3.89,2-5.24,2.84c-10.12,6.12-42.24,25.73-48.28,29.24a19.17,19.17,0,0,0-3,2V542.22c0,.67,0,5.15,0,5.15l5.09-2.83c5.62-3.16,93.39-53.25,101.93-58.07a23.54,23.54,0,0,1,4-1.91c1.85-.63,3.19.27,3.47,2.2a20.4,20.4,0,0,1,0,2.82q0,41.35,0,82.69C487.44,573.86,487.13,575.5,488,577.18Zm61.56,110.88c-.85.45-1.46.73-2,1.08-9.31,5.63-47,28.52-56.56,34.22-2.44,1.46-3.85,3.22-3.51,6.16a21.52,21.52,0,0,1,0,2.41q0,33.08,0,66.14c0,7.4-.64,5.55,4.93,10q44,35,88.18,69.8c4,3.15,4,3.15,8.44.45l35.83-21.78,52.37-31.81c1-.61,2.25-1,2.56-2.33-2.45-6.76-24-37-29-40.83,0,0-2.93,2-4.64,3-12,7.17-24,14.42-36,21.52-14.81,8.73-30.73,13.33-48,12.56a57.34,57.34,0,0,1-28.58-8.69c-6.72-4.25-11.31-8.65-14.85-15.85-4.42-9.89-4.13-21.3-2.79-26.07.83-3,1.57-4.71,4.09-6.12,4.69-2.61,9.24-5.49,13.84-8.27l34.86-21c.8-.48,2.57-1.7,3.44-.83,2.12,2.12,3.92,5.43,2.52,7.37-4.84,6.72-2.82,18.45,1.55,25.36,5.09,8.08,12.5,13.61,20.17,15.25a49.32,49.32,0,0,0,23.37-.8,79.66,79.66,0,0,0,18.58-8.7l2.73-1.76s-1.95-2.56-2.83-3.54c-4.56-5.11-9-10.3-13.76-15.27-16.49-17.37-33.93-33.72-53.3-47.88A159.8,159.8,0,0,0,549.51,688.06ZM315.29,397.55s0-3.6,0-5.19c-.1-27.81.31-55.62-.48-83.43-.26-9-.18-18-.06-27a25,25,0,0,0-4.45-14.78c-3.08-4.57-6.26-9.06-9.75-13.33a121.31,121.31,0,0,0-16.9-17.24c-1.59-1.3-3-1.55-4.7-.42-2.26,1.46-4.6,2.78-6.89,4.18-11.67,7.18-23.54,14-35,21.56a59,59,0,0,0-11.37,9.59c-5.35,5.87-9.34,12.49-10.69,20.43a74,74,0,0,0,6.44,45.91c7.49,15.36,18.82,27.35,32.64,37.13,15.16,10.73,32.1,17.28,50.17,21.08A60.52,60.52,0,0,0,315.29,397.55ZM582.8,623a3.65,3.65,0,0,1-1.73,1.7c-3.94,2.32-7.69,4.93-11.58,7.31-16.06,9.81-32.26,19.38-48.35,29.14-5.27,3.2-6.55.9-6.49-3.76.16-10.49.05-21,.05-31.47q0-20.78,0-41.55c0-1.39,0-4.85,0-4.85-1.3.71-17.23,10.36-23.75,14.1-2.69,1.55-3.65,3.46-3.59,6.52.18,8.6.06,17.21.06,25.82q0,38.93,0,77.85c0,1.55-.34,3.18.53,4.77,1.54-.13,2.56-1.06,3.68-1.74,21.26-12.89,112.72-68.39,137.19-83.25,1.24-.76,2.67-1.33,3.32-2.67a4,4,0,0,0-.22-2.48c-1.33-3.66-2.53-7.38-4-11a207.32,207.32,0,0,0-20.11-36.26,160.62,160.62,0,0,0-20.88-25.57,36.14,36.14,0,0,0-6.87-5.44c-2.62.52-4.43,2.23-6.51,3.4a4.58,4.58,0,0,0-1.3,1.05c0,1.21,0,3.78,0,5q0,29.45,0,58.89c0,.94,0,1.89,0,2.83.16,3.22,1.36,4.54,4.59,5a9.61,9.61,0,0,0,1.61.11A3.36,3.36,0,0,1,582,619.2C582.42,620.47,583.13,621.68,582.8,623ZM372.91,392.15s3-1.48,4.06-2.09c16.2-9.82,36.2-22,52.45-31.69,0,0,.05-1.28,0-4.52-.18-12.37-.12-24.73-.1-37.1a23.34,23.34,0,0,0-3.88-12.91c-6.65-10.39-15-19.3-24-27.58a11.59,11.59,0,0,0-5.11-3.18l-21.75,13.26a3.31,3.31,0,0,0-1.62,3c0,.94,0,1.88,0,2.82q0,47.6,0,95.17C372.91,388.69,372.91,392.15,372.91,392.15Z"/></svg>